<svg width="34" height="23" viewBox="0 0 34 23" fill="none" xmlns="http://www.w3.org/2000/svg">
<path d="M1.88889 22.6667H32.1111C33.15 22.6667 34 21.8167 34 20.7778C34 19.7389 33.15 18.8889 32.1111 18.8889H1.88889C0.85 18.8889 0 19.7389 0 20.7778C0 21.8167 0.85 22.6667 1.88889 22.6667ZM1.88889 13.2222H32.1111C33.15 13.2222 34 12.3722 34 11.3333C34 10.2944 33.15 9.44444 32.1111 9.44444H1.88889C0.85 9.44444 0 10.2944 0 11.3333C0 12.3722 0.85 13.2222 1.88889 13.2222ZM0 1.88889C0 2.92778 0.85 3.77778 1.88889 3.77778H32.1111C33.15 3.77778 34 2.92778 34 1.88889C34 0.85 33.15 0 32.1111 0H1.88889C0.85 0 0 0.85 0 1.88889Z" fill="#314077"/>
</svg>
