<svg width="220" height="207" viewBox="0 0 220 207" fill="none" xmlns="http://www.w3.org/2000/svg">
<path d="M52.2942 145.051C54.0042 153.266 59.9513 160.337 68.1476 164.93C64.543 169.323 62.3417 175.047 62.3417 181.318C62.3417 195.104 72.9031 206.319 85.8833 206.319C98.8635 206.319 109.425 195.104 109.425 181.318C109.425 177.448 108.568 173.796 107.084 170.522H151.248C149.764 173.796 148.907 177.448 148.907 181.318C148.907 195.104 159.468 206.319 172.449 206.319C185.429 206.319 195.99 195.104 195.99 181.318C195.99 177.443 195.132 173.786 193.644 170.509C197.268 170.372 200.17 167.217 200.17 163.334C200.17 159.364 197.139 156.146 193.401 156.146H90.1002C77.16 156.146 66.9388 148.804 65.5107 141.947L63.6978 133.24C69.5925 136.147 76.4854 137.828 83.731 137.828H170.311C188.842 137.828 205.097 126.878 208.114 112.381L219.835 56.9897C220.269 54.9404 219.837 52.7917 218.653 51.1093C217.468 49.427 215.651 48.3791 213.676 48.241L44.7075 36.4157C44.4647 36.3982 44.2194 36.3964 43.9742 36.4059L39.5054 14.9441C38.9931 12.4809 37.3013 10.4832 35.0488 9.68087L8.92179 0.37445C5.38073 -0.886173 1.54104 1.13913 0.353326 4.904C-0.8356 8.66809 1.07333 12.7429 4.61828 14.0054L27.1155 22.0189L52.294 145.051H52.2942ZM85.8835 191.943C80.3666 191.943 75.8797 187.177 75.8797 181.318C75.8797 175.46 80.3668 170.693 85.8835 170.693C91.4002 170.693 95.8874 175.46 95.8874 181.318C95.8874 187.177 91.4002 191.943 85.8835 191.943ZM172.449 191.943C166.933 191.943 162.445 187.177 162.445 181.318C162.445 175.46 166.933 170.693 172.449 170.693C177.966 170.693 182.453 175.46 182.453 181.318C182.453 187.177 177.966 191.943 172.449 191.943ZM194.903 109.253C193.475 116.11 183.253 123.452 170.312 123.452H83.7318C70.7916 123.452 60.5704 116.11 59.1422 109.253L47.0109 50.9849L204.895 62.0345L194.903 109.253Z" fill="#CACACA"/>
</svg>
