<svg width="24" height="17" viewBox="0 0 24 17" fill="none" xmlns="http://www.w3.org/2000/svg">
<path d="M12.3154 9.67717C12.0117 9.95873 11.5354 9.95887 11.2313 9.67717L1.18965 0.372417C1.04637 0.239609 1.14028 0 1.33564 0H22.211C22.4063 0 22.5002 0.239609 22.357 0.372417L12.3154 9.67717ZM8.08513 8.61158L0.360836 15.7689C0.223312 15.8963 0 15.7988 0 15.6114V1.14728C0 0.959826 0.223312 0.862316 0.360836 0.989715L8.08513 8.14713C8.22037 8.27245 8.22037 8.48626 8.08513 8.61158ZM8.86804 9.27132C8.9894 9.15883 9.177 9.15883 9.29836 9.27132L10.5407 10.4224C10.8862 10.7426 11.3298 10.9027 11.7732 10.9027C12.2168 10.9027 12.6603 10.7426 13.0059 10.4224L14.2481 9.27132C14.3695 9.15883 14.5571 9.15883 14.6784 9.27132L22.3568 16.3862C22.5001 16.519 22.4061 16.7586 22.2108 16.7586H1.33557C1.1402 16.7586 1.04623 16.519 1.18958 16.3862L8.86804 9.27132ZM15.4614 8.1472L23.1857 0.989715C23.3232 0.862316 23.5466 0.959826 23.5466 1.14728V15.6114C23.5466 15.7989 23.3232 15.8964 23.1857 15.769L15.4614 8.61158C15.3263 8.48633 15.3263 8.27245 15.4614 8.1472Z" fill="white"/>
</svg>
