<svg width="21" height="21" viewBox="0 0 21 21" fill="none" xmlns="http://www.w3.org/2000/svg">
<path d="M10.0748 0.0147269C3.85686 0.340751 -0.247712 5.23411 0.011618 11.4046C0.124889 14.1056 1.20692 16.4296 1.46327 18.9929C1.52885 19.657 1.33808 20.4765 2.10117 20.7666C3.04012 21.1226 4.47985 20.5244 5.26678 19.977C5.53506 19.7945 5.79141 19.5822 5.98814 19.319C6.8019 19.8603 7.57393 20.3838 8.54269 20.6171C12.8082 21.643 17.4821 19.295 19.5598 15.5233C23.4646 8.43752 18.1856 -0.410002 10.0748 0.0147269ZM7.66037 14.8025C7.32354 15.0657 6.99863 15.4246 6.62603 15.631C6.08651 15.9211 5.91958 15.619 5.71689 15.1405C5.07899 13.618 5.00149 11.0248 5.37409 9.43055C5.87487 7.26204 7.5471 5.35375 9.84531 5.15036C12.1703 4.94398 14.3284 6.12844 15.3032 8.26704C17.4613 13.0258 11.9378 17.7247 7.66037 14.8055V14.8025Z" fill="white"/>
</svg>
