<svg width="20" height="20" viewBox="0 0 20 20" fill="none" xmlns="http://www.w3.org/2000/svg">
<path d="M5.75514 7.42105C5.42262 7.75244 5.37326 8.27324 5.63953 8.6595C6.07836 9.29614 6.87273 10.3319 8.13105 11.586C9.38931 12.8401 10.4286 13.6318 11.0674 14.0691C11.4549 14.3345 11.9774 14.2853 12.31 13.9539L13.3336 12.9337C13.7803 12.4886 14.5044 12.4886 14.9509 12.9337L17.1033 15.0789C17.8156 15.7888 17.8156 16.9394 17.1037 17.649L15.7812 18.9671C15.7812 18.9671 12.4702 22.267 4.94213 14.7642C-2.58588 7.26141 0.725163 3.9615 0.725163 3.9615L2.04764 2.64344C2.75966 1.93378 3.91408 1.93378 4.6261 2.64344L6.77881 4.78894C7.2254 5.23405 7.2254 5.95571 6.77881 6.40082L5.75514 7.42105Z" fill="#314077"/>
<path d="M15.963 10.2213C15.8471 10.1059 15.7807 9.94266 15.7941 9.76723C15.8009 9.66888 15.9245 7.53634 14.0417 5.65986C12.2702 3.89425 9.91202 3.91451 9.88841 3.91497C9.56783 3.92055 9.3023 3.66662 9.29578 3.34709C9.28922 3.02766 9.5424 2.76315 9.86289 2.75563C9.979 2.75291 12.7311 2.71382 14.8644 4.83994C17.1442 7.11205 16.9629 9.74595 16.954 9.857C16.9286 10.1762 16.6484 10.4144 16.3282 10.3892C16.1846 10.3778 16.0574 10.3154 15.963 10.2213Z" fill="#314077"/>
<path d="M18.727 10.3298C18.611 10.2141 18.5445 10.0507 18.5582 9.875C18.5597 9.85243 18.6131 9.02263 18.321 7.86339C17.9291 6.3081 17.1335 4.92463 15.9563 3.75136C13.3187 1.12257 9.81496 1.15913 9.77987 1.15982C9.45915 1.1661 9.1933 0.912342 9.18641 0.592542C9.17958 0.272881 9.43308 0.00805044 9.7538 0.000573513C9.91676 -0.0032111 13.7794 -0.0581342 16.779 2.93148C19.9839 6.12565 19.7304 9.81016 19.7181 9.96542C19.6927 10.2846 19.4125 10.5229 19.0922 10.4976C18.9487 10.4862 18.8214 10.4238 18.727 10.3298Z" fill="#314077"/>
<path d="M9.91914 6.64663C9.81698 6.54482 9.75259 6.40497 9.74894 6.24939C9.74142 5.92926 9.99752 5.66365 10.3187 5.65613C10.3799 5.65474 11.8309 5.63402 12.9491 6.74845L12.9666 6.7659C14.0848 7.88037 14.0641 9.32651 14.0626 9.38748C14.0551 9.7076 13.7886 9.96108 13.4674 9.95356C13.1473 9.94608 12.8936 9.68231 12.8994 9.36357C12.8995 9.33782 12.8954 8.3348 12.1439 7.58587L12.1264 7.56842C11.369 6.81348 10.3525 6.81537 10.3423 6.81551C10.1773 6.81934 10.0271 6.75422 9.91914 6.64663Z" fill="#314077"/>
</svg>
