<svg width="20" height="20" viewBox="0 0 20 20" fill="none" xmlns="http://www.w3.org/2000/svg">
<path d="M5.75514 7.42119C5.42262 7.75257 5.37326 8.27337 5.63953 8.65964C6.07836 9.29628 6.87273 10.332 8.13105 11.5861C9.38931 12.8402 10.4286 13.6319 11.0674 14.0693C11.4549 14.3346 11.9774 14.2854 12.31 13.9541L13.3336 12.9338C13.7803 12.4887 14.5044 12.4887 14.9509 12.9338L17.1033 15.079C17.8156 15.7889 17.8156 16.9395 17.1037 17.6492L15.7812 18.9672C15.7812 18.9672 12.4702 22.2671 4.94213 14.7643C-2.58588 7.26154 0.725163 3.96164 0.725163 3.96164L2.04764 2.64357C2.75966 1.93391 3.91408 1.93391 4.6261 2.64357L6.77881 4.78908C7.2254 5.23419 7.2254 5.95585 6.77881 6.40096L5.75514 7.42119Z" fill="white"/>
<path d="M15.9623 10.221C15.8464 10.1055 15.78 9.94233 15.7934 9.7669C15.8002 9.66854 15.9238 7.536 14.041 5.65953C12.2695 3.89391 9.91128 3.91417 9.88768 3.91463C9.5671 3.92022 9.30156 3.66628 9.29505 3.34676C9.28848 3.02733 9.54167 2.76282 9.86216 2.7553C9.97827 2.75257 12.7304 2.71348 14.8637 4.8396C17.1435 7.11171 16.9621 9.74562 16.9533 9.85667C16.9279 10.1759 16.6477 10.4141 16.3274 10.3888C16.1839 10.3774 16.0567 10.3151 15.9623 10.221Z" fill="white"/>
<path d="M18.7263 10.3298C18.6103 10.2141 18.5438 10.0507 18.5574 9.875C18.559 9.85243 18.6124 9.02263 18.3202 7.86339C17.9284 6.3081 17.1327 4.92463 15.9555 3.75136C13.318 1.12257 9.81422 1.15913 9.77913 1.15982C9.45842 1.1661 9.19256 0.912342 9.18568 0.592542C9.17885 0.272881 9.43235 0.00805044 9.75307 0.000573513C9.91603 -0.0032111 13.7786 -0.0581342 16.7783 2.93148C19.9832 6.12565 19.7297 9.81016 19.7174 9.96542C19.6919 10.2846 19.4117 10.5229 19.0915 10.4976C18.9479 10.4862 18.8207 10.4238 18.7263 10.3298Z" fill="white"/>
<path d="M9.91841 6.64599C9.81624 6.54418 9.75185 6.40433 9.74821 6.24875C9.74069 5.92862 9.99679 5.66301 10.318 5.65549C10.3792 5.6541 11.8302 5.63338 12.9484 6.74781L12.9659 6.76526C14.0841 7.87973 14.0633 9.32587 14.0619 9.38684C14.0544 9.70696 13.7879 9.96044 13.4667 9.95292C13.1466 9.94544 12.8929 9.68167 12.8987 9.36293C12.8988 9.33718 12.8947 8.33416 12.1432 7.58522L12.1257 7.56778C11.3683 6.81284 10.3517 6.81473 10.3416 6.81487C10.1766 6.8187 10.0264 6.75358 9.91841 6.64599Z" fill="white"/>
</svg>
