<svg width="38" height="38" viewBox="0 0 38 38" fill="none" xmlns="http://www.w3.org/2000/svg">
<g clip-path="url(#clip0_757_2470)">
<path d="M37.3608 5.04997V32.2833C37.3608 35.0681 35.094 37.334 32.3072 37.334H5.05429C2.26748 37.334 0 35.0681 0 32.2833V5.04997C0 2.26518 2.26748 0 5.05429 0H32.3072C35.094 0 37.3608 2.26518 37.3608 5.04997Z" fill="white"/>
<path d="M25.6198 9.45621C23.7036 7.54069 21.1923 6.58369 18.6802 6.58369C16.1689 6.58369 13.6569 7.54069 11.7407 9.45621C8.10577 13.0885 7.89218 18.908 11.2502 22.798L17.7513 30.3252C18.2411 30.8926 19.1201 30.8926 19.6099 30.3252L26.1103 22.798C27.7053 20.9513 28.4944 18.6685 28.4944 16.3922C28.4944 13.8742 27.5289 11.3633 25.6198 9.45621ZM18.6801 21.3522C15.9383 21.3522 13.7151 19.1306 13.7151 16.3908C13.7151 13.6502 15.9383 11.4293 18.6801 11.4293C21.4227 11.4293 23.6452 13.6503 23.6452 16.3908C23.6453 19.1306 21.4227 21.3522 18.6801 21.3522Z" fill="#314077"/>
</g>
<defs>
<clipPath id="clip0_757_2470">
<rect width="37.3608" height="37.4595" fill="white"/>
</clipPath>
</defs>
</svg>
