<svg width="28" height="28" viewBox="0 0 28 28" fill="none" xmlns="http://www.w3.org/2000/svg">
<path fill-rule="evenodd" clip-rule="evenodd" d="M3.31345 3.17071C2.26296 4.2212 1.42966 5.46832 0.861139 6.84086C0.292615 8.21339 1.56536e-08 9.68447 0 11.1701C-1.56536e-08 12.6557 0.292615 14.1268 0.861139 15.4993C1.42966 16.8719 2.26296 18.119 3.31345 19.1695C4.36395 20.22 5.61107 21.0533 6.98361 21.6218C8.35614 22.1903 9.82722 22.4829 11.3128 22.4829C12.7985 22.4829 14.2695 22.1903 15.6421 21.6218C17.0146 21.0533 18.2617 20.22 19.3122 19.1695C21.3727 17.0361 22.5128 14.1789 22.487 11.2131C22.4613 8.24726 21.2717 5.41023 19.1744 3.31302C17.0772 1.2158 14.2402 0.0261996 11.2744 0.000427599C8.3086 -0.0253444 5.45132 1.11478 3.31798 3.17523M17.7151 17.5723C16.8782 18.428 15.8799 19.1091 14.778 19.5763C13.6761 20.0435 12.4924 20.2874 11.2956 20.294C10.0987 20.3006 8.91248 20.0697 7.80548 19.6147C6.69849 19.1597 5.69276 18.4896 4.84652 17.6432C4.00029 16.7968 3.33036 15.791 2.87553 14.6839C2.42071 13.5768 2.19002 12.3905 2.19682 11.1937C2.20362 9.99681 2.44778 8.8132 2.91517 7.71137C3.38255 6.60954 4.06386 5.61137 4.91967 4.77466C6.62319 3.10914 8.9148 2.18261 11.2972 2.19615C13.6796 2.20969 15.9605 3.16221 17.645 4.84699C19.3295 6.53176 20.2816 8.81286 20.2947 11.1953C20.3078 13.5776 19.3809 15.8691 17.7151 17.5723Z" fill="#BCBCBC"/>
<path d="M17.7105 20.8142C17.2863 20.3897 17.0481 19.814 17.0483 19.2139C17.0486 18.6138 17.2871 18.0384 17.7116 17.6142C18.1361 17.19 18.7118 16.9518 19.3119 16.952C19.912 16.9522 20.4874 17.1908 20.9116 17.6153L27.3093 24.0153C27.5254 24.224 27.6977 24.4736 27.8163 24.7496C27.9349 25.0256 27.9973 25.3225 27.9999 25.6228C28.0025 25.9232 27.9453 26.2211 27.8315 26.4991C27.7178 26.7772 27.5498 27.0297 27.3374 27.2422C27.125 27.4546 26.8724 27.6226 26.5943 27.7363C26.3163 27.85 26.0184 27.9073 25.718 27.9047C25.4177 27.9021 25.1208 27.8397 24.8448 27.7211C24.5688 27.6025 24.3192 27.4302 24.1105 27.2141L17.7105 20.8142Z" fill="#BCBCBC"/>
</svg>
