<svg width="85" height="85" viewBox="0 0 85 85" fill="none" xmlns="http://www.w3.org/2000/svg">
<path fill-rule="evenodd" clip-rule="evenodd" d="M15.9375 71.7188C15.233 71.7188 14.5574 71.4389 14.0592 70.9408C13.5611 70.4426 13.2812 69.767 13.2812 69.0625V15.9375C13.2812 15.233 13.5611 14.5574 14.0592 14.0592C14.5574 13.5611 15.233 13.2812 15.9375 13.2812H65.0781C66.1348 13.2812 67.1483 12.8615 67.8955 12.1143C68.6427 11.367 69.0625 10.3536 69.0625 9.29688C69.0625 8.24015 68.6427 7.22671 67.8955 6.4795C67.1483 5.73228 66.1348 5.3125 65.0781 5.3125H15.9375C13.1196 5.3125 10.4171 6.43192 8.42449 8.42449C6.43192 10.4171 5.3125 13.1196 5.3125 15.9375V69.0625C5.3125 71.8804 6.43192 74.5829 8.42449 76.5755C10.4171 78.5681 13.1196 79.6875 15.9375 79.6875H69.0625C71.8804 79.6875 74.5829 78.5681 76.5755 76.5755C78.5681 74.5829 79.6875 71.8804 79.6875 69.0625V51.7969C79.6875 50.7402 79.2677 49.7267 78.5205 48.9795C77.7733 48.2323 76.7598 47.8125 75.7031 47.8125C74.6464 47.8125 73.633 48.2323 72.8857 48.9795C72.1385 49.7267 71.7187 50.7402 71.7187 51.7969V69.0625C71.7187 69.767 71.4389 70.4426 70.9408 70.9408C70.4426 71.4389 69.767 71.7188 69.0625 71.7188H15.9375ZM83.8312 24.8625C84.535 24.1072 84.9182 23.1082 84.9 22.076C84.8818 21.0437 84.4636 20.0589 83.7336 19.3289C83.0036 18.5989 82.0187 18.1807 80.9865 18.1625C79.9543 18.1443 78.9553 18.5274 78.2 19.2312L48.6731 48.7528L38.7228 38.4678C38.3598 38.0885 37.9253 37.7846 37.4445 37.5737C36.9636 37.3629 36.4458 37.2491 35.9209 37.239C35.3959 37.2289 34.8741 37.3227 34.3855 37.5149C33.8969 37.7072 33.4511 37.9941 33.0737 38.3592C32.6964 38.7243 32.3949 39.1604 32.1867 39.6424C31.9784 40.1244 31.8675 40.6428 31.8603 41.1678C31.853 41.6928 31.9496 42.2141 32.1445 42.7016C32.3394 43.1892 32.6288 43.6334 32.9959 44.0088L45.7619 57.205C46.1292 57.586 46.5687 57.8899 47.0548 58.0992C47.5409 58.3084 48.0637 58.4187 48.5929 58.4237C49.1221 58.4286 49.6469 58.3281 50.1368 58.128C50.6267 57.9279 51.0719 57.6322 51.4462 57.2581L83.8312 24.8625Z" fill="#9F9F9F"/>
</svg>
