<svg width="22" height="19" viewBox="0 0 22 19" fill="none" xmlns="http://www.w3.org/2000/svg">
<path fill-rule="evenodd" clip-rule="evenodd" d="M1.33296 7.95546C6.27829 5.87526 12.2637 2.93158 17.4446 0.929933C22.233 -0.816637 22.1348 -0.345675 21.4284 4.44267C20.8593 8.26943 20.2313 12.0962 19.5837 15.923C19.3482 17.748 18.4062 18.7096 16.4045 17.591L10.1836 13.2148C9.30053 12.4887 9.5556 11.9392 10.2621 11.2131L16.012 5.79677C17.5231 4.28568 16.797 3.73622 15.0504 4.91369L7.16143 10.2711C6.04281 11.0561 4.84575 11.0561 3.57015 10.6636L0.862001 9.70203C-0.90422 9.07402 0.449824 8.34793 1.33296 7.95546Z" fill="white"/>
</svg>
