<svg width="131" height="58" viewBox="0 0 131 58" fill="none" xmlns="http://www.w3.org/2000/svg">
<path d="M15.449 32.2771C17.1723 33.6357 17.3269 35.9753 15.7942 37.5027L9.06602 44.2072C9.07768 44.2091 9.08937 44.2109 9.101 44.2128L5.26722 48.0248C5.19637 48.0794 5.12847 48.1371 5.06232 48.1963C5.02174 48.2358 4.98033 48.2743 4.93826 48.3123C4.3254 48.9137 3.95136 49.7098 3.95136 50.5842C3.95136 52.458 5.66523 53.9771 7.77936 53.9771C9.8935 53.9771 11.6074 52.458 11.6074 50.5842C11.6074 49.5022 11.0354 48.5393 10.1453 47.9178L12.4638 45.6128C14.0672 46.8009 15.0874 48.5868 15.0874 50.5842C15.0874 54.1615 11.8155 57.0615 7.77936 57.0615C3.74326 57.0615 0.471362 54.1615 0.471362 50.5842C0.471362 48.8144 1.27238 47.2102 2.57058 46.0412L11.7392 36.9046C12.761 35.8864 12.658 34.3266 11.5092 33.4208L0 24.3481V20.0989L15.449 32.2771ZM8.03705 34.5656C8.63398 35.0378 8.686 35.8496 8.15329 36.3786L0.167627 44.3092V28.3405L8.03705 34.5656ZM10.2154 0C10.2154 5.85898 15.4815 10.6273 22.0474 10.7906V13.8798H9.86736V10.7954H12.7798C11.3069 9.75594 10.0451 8.49174 9.0616 7.06039C5.68228 8.00042 3.64895 11.1108 4.47813 14.2133C4.74686 15.2186 5.28518 16.1051 6.00843 16.8272L5.98466 16.8323L20.044 27.5081C22.5314 29.1994 24.1354 31.8604 24.1354 34.8538C24.1354 37.4601 22.919 39.8144 20.9626 41.496L18.4692 39.5627C19.8167 38.4122 20.6554 36.7973 20.6554 35.008C20.6554 33.1055 19.7073 31.3992 18.2071 30.2401L18.2194 30.2272L12.2755 25.6858C12.2813 25.6851 12.287 25.6844 12.2928 25.6837L9.08944 23.2514L8.12736 22.5162L8.12465 22.5186L1.86336 17.7643L1.92827 17.6965C1.42803 16.93 1.04316 16.087 0.801012 15.1811C-0.452668 10.4905 2.545 5.78829 7.58156 4.25219C7.06906 2.91332 6.77517 1.48487 6.73943 0H10.2154Z" fill="white"/>
<path d="M54.0022 30.5625C57.9067 30.5625 61.0687 30.5864 61.0687 37.629C61.0687 44.6955 57.9067 44.6955 54.0022 44.6955H36.5874V47.3305H31.9163V30.5625H54.0022ZM54.0501 40.0005C55.3676 40.0005 56.4216 39.9765 56.4216 37.629C56.4216 35.2575 55.3676 35.2575 54.0501 35.2575H36.5874V40.0005H54.0501ZM88.2474 30.5625H92.9185V47.3305H88.2474V37.3415L68.9163 43.8571V47.3305H64.2452V30.5625H68.9163V38.7788L88.2474 32.1674V30.5625ZM120.883 30.5625C125.506 30.5625 129.267 30.5864 129.267 38.9704C129.267 47.3305 125.506 47.3305 120.883 47.3305H115.086V49.678H110.415V47.3305H104.618C99.9945 47.3305 96.2577 47.3305 96.2577 38.9465C96.2577 30.5625 99.9945 30.5625 104.618 30.5625H110.415V28.2389H115.086V30.5625H120.883ZM104.618 42.6594H110.415V35.2815H104.618C102.582 35.2815 100.929 35.2815 100.929 38.9704C100.929 42.6594 102.582 42.6594 104.618 42.6594ZM120.931 42.6594C122.967 42.6594 124.62 42.6354 124.62 38.9465C124.62 35.2575 122.967 35.2575 120.931 35.2575H115.086V42.6594H120.931Z" fill="white"/>
</svg>
