<svg width="131" height="65" viewBox="0 0 131 65" fill="none" xmlns="http://www.w3.org/2000/svg">
<path d="M15.449 36.406C17.1723 37.9385 17.3269 40.5773 15.7942 42.3001L9.06602 49.8623C9.07768 49.8644 9.08937 49.8665 9.101 49.8686L5.26722 54.1683C5.19637 54.2298 5.12847 54.2949 5.06232 54.3617C5.02174 54.4062 4.98033 54.4497 4.93826 54.4925C4.3254 55.1709 3.95136 56.0688 3.95136 57.0551C3.95136 59.1686 5.66523 60.882 7.77936 60.882C9.8935 60.882 11.6074 59.1686 11.6074 57.0551C11.6074 55.8347 11.0354 54.7486 10.1453 54.0475L12.4638 51.4477C14.0672 52.7878 15.0874 54.8021 15.0874 57.0551C15.0874 61.09 11.8155 64.3609 7.77936 64.3609C3.74326 64.3609 0.471362 61.09 0.471362 57.0551C0.471362 55.0589 1.27238 53.2495 2.57058 51.9309L11.7392 41.6255C12.761 40.4771 12.658 38.7178 11.5092 37.696L0 27.4628V22.67L15.449 36.406ZM8.03705 38.9873C8.63398 39.52 8.686 40.4356 8.15329 41.0323L0.167627 49.9774V31.9659L8.03705 38.9873ZM10.2154 0C10.2154 6.60848 15.4815 11.9868 22.0474 12.171V15.6554H9.86736V12.1764H12.7798C11.3069 11.0039 10.0451 9.57802 9.0616 7.96357C5.68228 9.02386 3.64895 12.5322 4.47813 16.0315C4.74686 17.1654 5.28518 18.1653 6.00843 18.9798L5.98466 18.9855L20.044 31.0271C22.5314 32.9347 24.1354 35.936 24.1354 39.3124C24.1354 42.2521 22.919 44.9076 20.9626 46.8043L18.4692 44.6237C19.8167 43.326 20.6554 41.5045 20.6554 39.4863C20.6554 37.3405 19.7073 35.4159 18.2071 34.1085L18.2194 34.0939L12.2755 28.9716C12.2813 28.9708 12.287 28.97 12.2928 28.9692L9.08944 26.2258L8.12736 25.3965L8.12465 25.3992L1.86336 20.0367L1.92827 19.9602C1.42803 19.0957 1.04316 18.1449 0.801012 17.1231C-0.452668 11.8324 2.545 6.52874 7.58156 4.79614C7.06906 3.286 6.77517 1.67482 6.73943 0H10.2154Z" fill="#314077"/>
<path d="M54.0022 25.232C57.9067 25.232 61.0687 25.256 61.0687 32.2985C61.0687 39.365 57.9067 39.365 54.0022 39.365H36.5874V42H31.9163V25.232H54.0022ZM54.0501 34.67C55.3676 34.67 56.4216 34.646 56.4216 32.2985C56.4216 29.9271 55.3676 29.9271 54.0501 29.9271H36.5874V34.67H54.0501ZM88.2474 25.232H92.9185V42H88.2474V32.0111L68.9163 38.5266V42H64.2452V25.232H68.9163V33.4483L88.2474 26.837V25.232ZM120.883 25.232C125.506 25.232 129.267 25.256 129.267 33.64C129.267 42 125.506 42 120.883 42H115.086V44.3475H110.415V42H104.618C99.9945 42 96.2577 42 96.2577 33.616C96.2577 25.232 99.9945 25.232 104.618 25.232H110.415V22.9085H115.086V25.232H120.883ZM104.618 37.3289H110.415V29.951H104.618C102.582 29.951 100.929 29.951 100.929 33.64C100.929 37.3289 102.582 37.3289 104.618 37.3289ZM120.931 37.3289C122.967 37.3289 124.62 37.305 124.62 33.616C124.62 29.9271 122.967 29.9271 120.931 29.9271H115.086V37.3289H120.931Z" fill="#314077"/>
</svg>
