<svg width="228" height="44" viewBox="0 0 228 44" fill="none" xmlns="http://www.w3.org/2000/svg">
<path fill-rule="evenodd" clip-rule="evenodd" d="M104.879 7.6507L94.2897 7.64795C94.2884 7.64795 94.287 7.64795 94.287 7.64795C94.2788 7.64795 94.2708 7.64942 94.2628 7.64942C92.8081 7.69434 90.9963 8.87048 90.6663 10.3208L85.6586 32.657C85.3286 34.1208 86.2263 35.312 87.6705 35.3339H98.7948C100.217 35.263 101.599 34.1004 101.923 32.6666L106.931 10.3301C107.266 8.85141 106.347 7.6507 104.879 7.6507Z" fill="#01798A"/>
<path fill-rule="evenodd" clip-rule="evenodd" d="M85.6585 32.6569L90.6662 10.3206C90.9962 8.8703 92.8079 7.69416 94.2626 7.64924L90.0524 7.64649L82.467 7.64502C81.0082 7.67509 79.1728 8.85948 78.8429 10.3206L73.8338 32.6569C73.5026 34.1207 74.4016 35.3118 75.8448 35.3337H87.6704C86.2262 35.3118 85.3285 34.1207 85.6585 32.6569Z" fill="#024381"/>
<path fill-rule="evenodd" clip-rule="evenodd" d="M73.8339 32.657L78.843 10.3207C79.1729 8.85961 81.0083 7.67522 82.467 7.64515L72.7495 7.64258C71.2826 7.64258 69.4019 8.84054 69.0667 10.3207L64.0575 32.657C64.027 32.7933 64.0101 32.9269 64 33.0576V33.472C64.0981 34.539 64.9065 35.3161 66.0685 35.3338H75.8449C74.4017 35.3119 73.5027 34.1208 73.8339 32.657Z" fill="#DD0228"/>
<path fill-rule="evenodd" clip-rule="evenodd" d="M82.6718 23.921H82.8557C83.0247 23.921 83.1384 23.8638 83.1917 23.7506L83.6695 23.0297H84.9492L84.6824 23.5039H86.2168L86.0221 24.2304H84.1963C83.9861 24.5493 83.7272 24.6992 83.416 24.6815H82.465L82.6718 23.921ZM82.4617 24.9623H85.8233L85.609 25.7515H84.2571L84.0508 26.5132H85.3663L85.1521 27.3024H83.8365L83.5309 28.428C83.4552 28.6162 83.5547 28.7008 83.8278 28.6816H84.8999L84.7013 29.4149H82.6428C82.2527 29.4149 82.1188 29.1899 82.2412 28.7389L82.6319 27.3024H81.791L82.0046 26.5132H82.8457L83.0518 25.7515H82.2479L82.4617 24.9623ZM87.8272 23.0243L87.7742 23.4863C87.7742 23.4863 88.4084 23.0063 88.9843 23.0063H91.1124L90.2985 25.9761C90.231 26.3156 89.9416 26.4844 89.4305 26.4844H87.0184L86.4534 28.5698C86.4208 28.6815 86.4669 28.7388 86.5886 28.7388H87.0632L86.8887 29.3861H85.6821C85.219 29.3861 85.0264 29.2457 85.1028 28.9637L86.6993 23.0243H87.8272ZM89.6293 23.8637H87.7298L87.5026 24.6651C87.5026 24.6651 87.819 24.4349 88.3476 24.4266C88.8748 24.4183 89.4765 24.4266 89.4765 24.4266L89.6293 23.8637ZM88.9411 25.7227C89.0816 25.7419 89.1602 25.6859 89.1696 25.5537L89.2859 25.1313H87.3835L87.224 25.7227H88.9411ZM87.658 26.6822H88.7545L88.7342 27.1605H89.0261C89.1736 27.1605 89.2468 27.1129 89.2468 27.0189L89.3332 26.7094H90.2445L90.1228 27.1605C90.0199 27.5367 89.747 27.7329 89.3035 27.7521H88.7194L88.7167 28.5698C88.706 28.7007 88.8235 28.7675 89.0654 28.7675H89.6144L89.4372 29.4149H88.1204C87.7513 29.4326 87.5703 29.2553 87.5741 28.8792L87.658 26.6822Z" fill="white"/>
<path fill-rule="evenodd" clip-rule="evenodd" d="M74.3705 19.0676C74.2218 19.8022 73.877 20.3664 73.3422 20.7671C72.8123 21.161 72.1288 21.3585 71.292 21.3585C70.5044 21.3585 69.9271 21.1568 69.5587 20.7521C69.3031 20.4645 69.176 20.0992 69.176 19.6576C69.176 19.475 69.1977 19.2788 69.241 19.0676L70.1326 14.7336H71.4792L70.5997 19.0185C70.5727 19.1371 70.5619 19.2475 70.5633 19.347C70.5619 19.5665 70.6159 19.7463 70.7254 19.8866C70.885 20.0952 71.1439 20.1987 71.5042 20.1987C71.9185 20.1987 72.26 20.0966 72.525 19.8907C72.79 19.6863 72.963 19.3961 73.0407 19.0185L73.923 14.7336H75.2628L74.3705 19.0676Z" fill="white"/>
<path fill-rule="evenodd" clip-rule="evenodd" d="M80.0259 17.3628H81.0806L80.2545 21.2307H79.2019L80.0259 17.3628ZM80.3579 15.9536H81.4219L81.2232 16.8925H80.1592L80.3579 15.9536Z" fill="white"/>
<path fill-rule="evenodd" clip-rule="evenodd" d="M82.0141 20.9361C81.7383 20.6703 81.599 20.3119 81.5977 19.8567C81.5977 19.779 81.6023 19.6904 81.6126 19.5936C81.6227 19.4955 81.6356 19.4001 81.6538 19.3115C81.7789 18.6833 82.0452 18.1844 82.4555 17.8164C82.8652 17.4471 83.3594 17.2617 83.9381 17.2617C84.4119 17.2617 84.7877 17.3953 85.063 17.6624C85.338 17.9309 85.4759 18.2934 85.4759 18.7542C85.4759 18.8331 85.4699 18.9244 85.4597 19.0226C85.4475 19.1221 85.4328 19.2175 85.4157 19.3115C85.2934 19.9303 85.0279 20.4236 84.6175 20.7849C84.2071 21.1487 83.7143 21.3299 83.1397 21.3299C82.6638 21.3299 82.2893 21.1991 82.0141 20.9361ZM84.0239 20.1701C84.2098 19.9671 84.343 19.659 84.4241 19.2489C84.4363 19.1848 84.447 19.118 84.4537 19.0512C84.4605 18.9858 84.4632 18.9245 84.4632 18.8686C84.4632 18.6301 84.403 18.4448 84.282 18.3139C84.1618 18.1817 83.9908 18.1163 83.7698 18.1163C83.4776 18.1163 83.2397 18.2198 83.0532 18.427C82.8652 18.6342 82.732 18.9477 82.6481 19.3647C82.6367 19.4287 82.6272 19.4928 82.6185 19.5555C82.6118 19.6195 82.6098 19.6795 82.611 19.734C82.611 19.9712 82.6712 20.1538 82.7922 20.2833C82.9125 20.4128 83.0827 20.4768 83.3066 20.4768C83.6001 20.4768 83.838 20.3746 84.0239 20.1701Z" fill="white"/>
<path fill-rule="evenodd" clip-rule="evenodd" d="M92.3186 23.9536L92.5729 23.0514H93.8586L93.8031 23.3825C93.8031 23.3825 94.4602 23.0514 94.9333 23.0514C95.4066 23.0514 96.5232 23.0514 96.5232 23.0514L96.2705 23.9536H96.0204L94.8211 28.2086H95.0712L94.8333 29.0536H94.5831L94.4791 29.4202H93.2339L93.3378 29.0536H90.8813L91.1207 28.2086H91.3669L92.5673 23.9536H92.3186ZM93.7058 23.9537L93.3785 25.1052C93.3785 25.1052 93.9384 24.8887 94.421 24.8273C94.5276 24.4252 94.667 23.9537 94.667 23.9537L93.7058 23.9537ZM93.227 25.645L92.8987 26.8511C92.8987 26.8511 93.5192 26.5431 93.945 26.5172C94.068 26.051 94.1911 25.645 94.1911 25.645L93.227 25.645ZM93.4677 28.2086L93.7138 27.3336H92.7541L92.5067 28.2086H93.4677ZM96.5774 22.9956H97.7861L97.8374 23.4452C97.8294 23.5597 97.8969 23.6143 98.0402 23.6143H98.2538L98.0377 24.3761H97.1493C96.81 24.3938 96.6356 24.2631 96.6194 23.9809L96.5774 22.9956ZM96.2232 24.6297H100.139L99.9088 25.4475H98.6622L98.4484 26.2078H99.6938L99.4626 27.0242H98.0755L97.7617 27.5027H98.4406L98.5974 28.4608C98.6162 28.5562 98.7 28.6025 98.8434 28.6025H99.0542L98.8326 29.3915H98.0863C97.6995 29.4107 97.4996 29.2798 97.4832 28.9978L97.3033 28.1228L96.6856 29.0536C96.5395 29.3166 96.315 29.4393 96.0124 29.4202H94.8725L95.0943 28.631H95.4499C95.596 28.631 95.7175 28.5656 95.827 28.4335L96.7938 27.0242H95.5472L95.7782 26.2078H97.1303L97.3454 25.4475H95.992L96.2232 24.6297Z" fill="white"/>
<path fill-rule="evenodd" clip-rule="evenodd" d="M75.611 17.3613H76.5621L76.4533 17.9201L76.5898 17.7606C76.8981 17.4281 77.2726 17.2632 77.7147 17.2632C78.1149 17.2632 78.4036 17.3804 78.5848 17.6162C78.7632 17.852 78.8118 18.1777 78.7274 18.5961L78.2035 21.2319H77.226L77.6992 18.8428C77.7479 18.5961 77.7344 18.4121 77.6592 18.2935C77.585 18.175 77.4429 18.1164 77.2381 18.1164C76.9867 18.1164 76.7751 18.1954 76.6027 18.3522C76.4296 18.5102 76.3154 18.7297 76.2593 19.0091L75.8233 21.2319H74.8438L75.611 17.3613Z" fill="white"/>
<path fill-rule="evenodd" clip-rule="evenodd" d="M86.5183 17.3613H87.4702L87.3622 17.9201L87.4972 17.7606C87.8057 17.4281 88.1815 17.2632 88.6222 17.2632C89.0224 17.2632 89.3117 17.3804 89.4914 17.6162C89.6687 17.852 89.72 18.1777 89.6335 18.5961L89.1116 21.2319H88.1327L88.6061 18.8428C88.6546 18.5961 88.6412 18.4121 88.5668 18.2935C88.4896 18.175 88.3503 18.1164 88.1464 18.1164C87.8948 18.1164 87.684 18.1954 87.5095 18.3522C87.3363 18.5102 87.2216 18.7297 87.1675 19.0091L86.7295 21.2319H85.7512L86.5183 17.3613" fill="white"/>
<path fill-rule="evenodd" clip-rule="evenodd" d="M91.2235 14.9626H93.987C94.5183 14.9626 94.9292 15.084 95.2117 15.3224C95.493 15.5637 95.6338 15.9099 95.6338 16.361V16.3746C95.6338 16.4604 95.6281 16.5572 95.6201 16.6621C95.6065 16.7657 95.5888 16.8706 95.5661 16.9797C95.4444 17.5767 95.1617 18.0565 94.7251 18.4203C94.2869 18.7828 93.768 18.9655 93.1704 18.9655H91.6884L91.2302 21.232H89.947L91.2235 14.9626ZM91.9141 17.8752H93.1433C93.4636 17.8752 93.7177 17.8001 93.9031 17.6517C94.087 17.5017 94.2087 17.2728 94.2762 16.9621C94.2869 16.9047 94.2937 16.853 94.3018 16.8053C94.306 16.7604 94.3113 16.7153 94.3113 16.6718C94.3113 16.4496 94.2331 16.2888 94.0761 16.1879C93.9193 16.0856 93.6734 16.0366 93.3325 16.0366H92.2887L91.9141 17.8752Z" fill="white"/>
<path fill-rule="evenodd" clip-rule="evenodd" d="M101.377 21.9801C100.971 22.8496 100.585 23.3565 100.358 23.5923C100.13 23.8254 99.6803 24.3679 98.5959 24.3269L98.6893 23.6632C99.6017 23.3798 100.095 22.1026 100.376 21.5371L100.041 17.3721L100.747 17.3625H101.339L101.403 19.9752L102.513 17.3625H103.636L101.377 21.9801Z" fill="white"/>
<path fill-rule="evenodd" clip-rule="evenodd" d="M98.235 17.6774L97.7886 17.9869C97.3222 17.6189 96.8964 17.3913 96.0745 17.7756C94.9549 18.2989 94.0193 22.3127 97.1019 20.9906L97.2776 21.2005L98.4904 21.2319L99.2868 17.5847L98.235 17.6774ZM97.5454 19.6713C97.3506 20.2506 96.9155 20.6335 96.5747 20.5245C96.234 20.4182 96.1123 19.8594 96.3097 19.2788C96.5044 18.6982 96.9424 18.3166 97.2804 18.4257C97.6211 18.532 97.744 19.0907 97.5454 19.6713Z" fill="white"/>
<path fill-rule="evenodd" clip-rule="evenodd" d="M3.97635 16.6231C4.3605 16.6208 5.5022 16.518 5.9858 18.1501C6.31155 19.2495 6.83047 21.0505 7.54253 23.5529H7.83253C8.59616 20.9147 9.12073 19.1137 9.40625 18.1501C9.89489 16.501 11.1165 16.6231 11.6051 16.6231L15.3751 16.6231V28.3504H11.5326V21.4393H11.275L9.133 28.3504H6.24206L4.10009 21.4342H3.84243V28.3504H0V16.6231L3.97635 16.6231ZM20.8927 16.6231V23.5393H21.1992L23.8047 17.8522C24.3105 16.7204 25.3885 16.6231 25.3885 16.6231H29.1068V28.3504H25.1841V21.4342H24.8776L22.3232 27.1213C21.8174 28.248 20.6884 28.3504 20.6884 28.3504H16.97V16.6231H20.8927ZM42.6653 22.196C42.1182 23.7466 40.3998 24.857 38.4974 24.857H34.3837V28.3504H30.6535V22.196H42.6653Z" fill="white"/>
<path fill-rule="evenodd" clip-rule="evenodd" d="M38.6772 16.623H30.4578C30.6534 19.2339 32.9018 21.469 35.2294 21.469H42.9245C43.3685 19.2991 41.8398 16.623 38.6772 16.623Z" fill="url(#paint0_linear_2034_528)"/>
<path d="M192.822 38.0451V35.8307C192.835 35.6444 192.808 35.4575 192.743 35.2825C192.678 35.1074 192.577 34.9482 192.446 34.8155C192.314 34.6828 192.156 34.5796 191.982 34.5128C191.807 34.446 191.621 34.4172 191.435 34.4282C191.191 34.4123 190.947 34.4622 190.729 34.5725C190.511 34.6829 190.326 34.8497 190.194 35.0556C190.074 34.8558 189.903 34.6921 189.697 34.5817C189.492 34.4713 189.261 34.4183 189.028 34.4282C188.825 34.418 188.623 34.461 188.442 34.5529C188.261 34.6449 188.106 34.7825 187.995 34.9523V34.5168H187.227V38.0451H188.002V36.089C187.985 35.9683 187.996 35.8454 188.032 35.7291C188.068 35.6128 188.13 35.506 188.213 35.4164C188.295 35.3268 188.397 35.2565 188.509 35.2108C188.622 35.165 188.744 35.1448 188.866 35.1516C189.375 35.1516 189.633 35.4838 189.633 36.0816V38.0451H190.408V36.089C190.393 35.9685 190.404 35.8461 190.441 35.7304C190.478 35.6146 190.54 35.5084 190.622 35.419C190.704 35.3297 190.805 35.2595 190.917 35.2133C191.03 35.1671 191.151 35.146 191.272 35.1516C191.796 35.1516 192.047 35.4838 192.047 36.0816V38.0451H192.822ZM204.293 34.5168H203.038V33.4465H202.263V34.5168H201.547V35.218H202.263V36.8272C202.263 37.6465 202.58 38.1337 203.488 38.1337C203.828 38.1348 204.16 38.0401 204.448 37.8606L204.227 37.2036C204.021 37.3264 203.787 37.395 203.547 37.4029C203.164 37.4029 203.038 37.1667 203.038 36.8125V35.218H204.293V34.5168ZM210.84 34.4282C210.653 34.4227 210.468 34.4678 210.304 34.5587C210.141 34.6497 210.004 34.7831 209.91 34.9449V34.5168H209.15V38.0451H209.918V36.0669C209.918 35.4838 210.169 35.159 210.671 35.159C210.835 35.1567 210.998 35.1868 211.15 35.2476L211.387 34.5242C211.211 34.4614 211.026 34.429 210.84 34.4282V34.4282ZM200.942 34.7973C200.507 34.5389 200.008 34.4108 199.502 34.4282C198.609 34.4282 198.034 34.8563 198.034 35.5576C198.034 36.1334 198.462 36.4877 199.251 36.5984L199.613 36.65C200.034 36.709 200.233 36.8198 200.233 37.0191C200.233 37.2922 199.953 37.4472 199.429 37.4472C199.007 37.4594 198.594 37.3294 198.255 37.0781L197.893 37.676C198.34 37.9883 198.876 38.1488 199.421 38.1337C200.44 38.1337 201.03 37.6539 201.03 36.9822C201.03 36.3621 200.565 36.0373 199.798 35.9266L199.436 35.8749C199.104 35.8307 198.838 35.7643 198.838 35.5281C198.838 35.2697 199.089 35.1147 199.51 35.1147C199.896 35.1205 200.275 35.2247 200.61 35.4173L200.942 34.7973ZM221.506 34.4282C221.319 34.4227 221.134 34.4678 220.97 34.5587C220.807 34.6497 220.671 34.7831 220.576 34.9449V34.5168H219.816V38.0451H220.584V36.0669C220.584 35.4838 220.835 35.159 221.337 35.159C221.501 35.1567 221.664 35.1868 221.817 35.2476L222.053 34.5242C221.877 34.4614 221.693 34.429 221.506 34.4282V34.4282ZM211.615 36.2809C211.605 36.5295 211.647 36.7774 211.738 37.0088C211.83 37.2402 211.969 37.4499 212.146 37.6244C212.323 37.7989 212.535 37.9344 212.768 38.0221C213.001 38.1098 213.249 38.1479 213.498 38.1337C213.959 38.1569 214.411 38.0068 214.767 37.7129L214.398 37.0929C214.133 37.2952 213.809 37.4065 213.475 37.4103C213.188 37.3928 212.918 37.2663 212.72 37.0564C212.523 36.8465 212.413 36.5692 212.413 36.2809C212.413 35.9927 212.523 35.7154 212.72 35.5055C212.918 35.2956 213.188 35.1691 213.475 35.1516C213.809 35.1554 214.133 35.2667 214.398 35.469L214.767 34.849C214.411 34.5552 213.959 34.4051 213.498 34.4282C213.249 34.4141 213.001 34.4521 212.768 34.5398C212.535 34.6275 212.323 34.763 212.146 34.9375C211.969 35.112 211.83 35.3217 211.738 35.553C211.647 35.7844 211.605 36.0323 211.615 36.2809V36.2809ZM218.805 36.2809V34.5168H218.037V34.9449C217.906 34.7761 217.737 34.641 217.543 34.5511C217.349 34.4613 217.136 34.4191 216.923 34.4282C216.447 34.4515 215.998 34.6569 215.67 35.0018C215.342 35.3467 215.158 35.8047 215.158 36.281C215.158 36.7572 215.342 37.2152 215.67 37.5601C215.998 37.905 216.447 38.1104 216.923 38.1337C217.136 38.1428 217.349 38.1007 217.543 38.0108C217.737 37.9209 217.906 37.7858 218.037 37.617V38.0451H218.805V36.2809ZM215.948 36.2809C215.96 36.0727 216.033 35.8725 216.157 35.7051C216.281 35.5376 216.452 35.4102 216.648 35.3386C216.844 35.2669 217.056 35.2542 217.259 35.3019C217.462 35.3496 217.647 35.4556 217.79 35.607C217.934 35.7584 218.03 35.9484 218.067 36.1537C218.103 36.359 218.079 36.5705 217.997 36.7623C217.915 36.954 217.779 37.1175 217.605 37.2327C217.431 37.3478 217.227 37.4096 217.019 37.4103C216.872 37.4123 216.727 37.384 216.593 37.3271C216.458 37.2703 216.337 37.1861 216.236 37.08C216.135 36.9739 216.058 36.8481 216.008 36.7106C215.959 36.5731 215.938 36.4267 215.948 36.2809V36.2809ZM206.685 34.4282C206.206 34.4534 205.755 34.6631 205.428 35.0131C205.1 35.3632 204.921 35.8265 204.928 36.3058C204.935 36.7852 205.127 37.2433 205.464 37.5841C205.801 37.9249 206.257 38.1219 206.736 38.1337C207.263 38.1522 207.778 37.9761 208.183 37.6391L207.807 37.0708C207.515 37.3044 207.154 37.4342 206.78 37.4398C206.527 37.4612 206.275 37.383 206.078 37.2218C205.881 37.0606 205.754 36.829 205.725 36.5761H208.345C208.353 36.4803 208.36 36.3843 208.36 36.2809C208.353 35.1811 207.674 34.4282 206.685 34.4282V34.4282ZM206.67 35.1147C206.902 35.1102 207.126 35.1978 207.293 35.3583C207.461 35.5188 207.558 35.7391 207.563 35.9709H205.732C205.746 35.7341 205.851 35.5119 206.027 35.3518C206.202 35.1918 206.433 35.1067 206.67 35.1147V35.1147ZM225.928 36.2809V33.0996H225.16V34.9449C225.029 34.7761 224.86 34.641 224.666 34.5511C224.472 34.4613 224.259 34.4191 224.046 34.4282C223.57 34.4515 223.121 34.6569 222.793 35.0018C222.465 35.3467 222.281 35.8047 222.281 36.281C222.281 36.7572 222.465 37.2153 222.793 37.5602C223.121 37.9051 223.57 38.1104 224.046 38.1337C224.259 38.1428 224.472 38.1007 224.666 38.0108C224.86 37.9209 225.029 37.7858 225.16 37.617V38.0451H225.928V36.2809ZM227.208 37.5338C227.255 37.5335 227.303 37.5429 227.346 37.5613C227.389 37.579 227.427 37.6045 227.46 37.6365C227.492 37.6685 227.518 37.7064 227.536 37.7483C227.555 37.7912 227.564 37.8375 227.564 37.8843C227.564 37.9311 227.555 37.9774 227.536 38.0203C227.518 38.062 227.492 38.0998 227.46 38.1316C227.427 38.1637 227.389 38.1893 227.346 38.2072C227.303 38.226 227.255 38.2355 227.208 38.2352C227.137 38.2359 227.069 38.2159 227.01 38.1777C226.951 38.1395 226.904 38.0848 226.876 38.0203C226.858 37.9774 226.848 37.9311 226.848 37.8843C226.848 37.8375 226.858 37.7913 226.876 37.7483C226.894 37.7065 226.92 37.6686 226.952 37.6365C226.985 37.6042 227.024 37.5787 227.066 37.5613C227.111 37.5428 227.159 37.5334 227.208 37.5338V37.5338ZM227.208 38.1578C227.244 38.1581 227.28 38.1508 227.313 38.1364C227.345 38.1224 227.375 38.1026 227.399 38.0779C227.45 38.0264 227.479 37.9569 227.479 37.8845C227.479 37.812 227.45 37.7425 227.399 37.6911C227.375 37.6664 227.345 37.6467 227.313 37.6331C227.28 37.6189 227.244 37.6117 227.208 37.612C227.171 37.6117 227.134 37.6189 227.1 37.6331C227.067 37.6465 227.038 37.6662 227.013 37.6911C226.962 37.7425 226.933 37.812 226.933 37.8845C226.933 37.9569 226.962 38.0264 227.013 38.0779C227.038 38.1028 227.067 38.1227 227.1 38.1364C227.134 38.1508 227.171 38.1581 227.208 38.1578V38.1578ZM227.228 37.7203C227.263 37.718 227.297 37.7279 227.325 37.7483C227.336 37.7575 227.345 37.7691 227.351 37.7823C227.357 37.7955 227.36 37.8099 227.359 37.8243C227.359 37.8367 227.357 37.849 227.352 37.8605C227.348 37.8719 227.341 37.8823 227.332 37.8909C227.31 37.9099 227.283 37.9212 227.255 37.9232L227.362 38.0461H227.278L227.179 37.924H227.147V38.0461H227.078V37.7203H227.228ZM227.147 37.7814V37.8682H227.227C227.243 37.8689 227.258 37.8652 227.271 37.8574C227.277 37.8538 227.281 37.8488 227.284 37.843C227.287 37.8372 227.288 37.8308 227.288 37.8243C227.288 37.818 227.287 37.8117 227.284 37.806C227.281 37.8003 227.277 37.7955 227.271 37.792C227.258 37.7843 227.243 37.7806 227.227 37.7814H227.147ZM223.071 36.2809C223.083 36.0727 223.156 35.8725 223.28 35.7051C223.404 35.5377 223.575 35.4103 223.771 35.3387C223.967 35.267 224.179 35.2543 224.382 35.302C224.585 35.3497 224.77 35.4558 224.913 35.6071C225.057 35.7585 225.153 35.9485 225.19 36.1538C225.226 36.3591 225.202 36.5706 225.12 36.7623C225.038 36.954 224.902 37.1176 224.728 37.2327C224.554 37.3478 224.35 37.4096 224.142 37.4103C223.995 37.4123 223.85 37.3839 223.716 37.3271C223.581 37.2702 223.46 37.1861 223.359 37.08C223.259 36.9739 223.181 36.8481 223.132 36.7106C223.082 36.573 223.062 36.4267 223.071 36.2809V36.2809ZM197.148 36.2809V34.5168H196.38V34.9449C196.249 34.7761 196.079 34.641 195.886 34.5511C195.692 34.4613 195.479 34.4191 195.265 34.4282C194.79 34.4515 194.341 34.6569 194.013 35.0018C193.684 35.3467 193.501 35.8047 193.501 36.281C193.501 36.7572 193.684 37.2152 194.013 37.5601C194.341 37.905 194.79 38.1104 195.265 38.1337C195.479 38.1428 195.692 38.1007 195.886 38.0108C196.079 37.9209 196.249 37.7858 196.38 37.617V38.0451H197.148V36.2809ZM194.291 36.2809C194.303 36.0727 194.376 35.8725 194.5 35.7051C194.624 35.5377 194.795 35.4103 194.991 35.3387C195.187 35.267 195.399 35.2543 195.602 35.302C195.805 35.3497 195.99 35.4558 196.133 35.6071C196.277 35.7585 196.373 35.9485 196.409 36.1538C196.446 36.3591 196.422 36.5706 196.34 36.7623C196.258 36.954 196.121 37.1176 195.948 37.2327C195.774 37.3478 195.57 37.4096 195.361 37.4103C195.215 37.4123 195.07 37.3839 194.936 37.3271C194.801 37.2702 194.679 37.1861 194.579 37.08C194.478 36.9739 194.401 36.8481 194.351 36.7106C194.302 36.573 194.281 36.4267 194.291 36.2809V36.2809Z" fill="white"/>
<path d="M212.314 7.62744H200.687V28.5221H212.314V7.62744Z" fill="#FF5F00"/>
<path d="M201.425 18.0755C201.423 16.0632 201.879 14.0769 202.758 12.2668C203.638 10.4568 204.917 8.87056 206.5 7.62818C204.54 6.08732 202.186 5.12909 199.707 4.863C197.227 4.59691 194.723 5.0337 192.481 6.12345C190.238 7.21319 188.347 8.91192 187.024 11.0255C185.702 13.139 185 15.5821 185 18.0755C185 20.5689 185.702 23.012 187.024 25.1256C188.347 27.2391 190.238 28.9379 192.481 30.0276C194.723 31.1173 197.227 31.5541 199.707 31.288C202.186 31.022 204.54 30.0637 206.5 28.5229C204.917 27.2805 203.638 25.6942 202.758 23.8842C201.879 22.0742 201.423 20.0878 201.425 18.0755V18.0755Z" fill="#EB001B"/>
<path d="M228 18.0755C228 20.5689 227.299 23.012 225.976 25.1255C224.653 27.2391 222.762 28.9378 220.52 30.0276C218.277 31.1173 215.773 31.5541 213.294 31.288C210.815 31.022 208.461 30.0637 206.5 28.5229C208.082 27.2792 209.361 25.6927 210.24 23.883C211.119 22.0732 211.576 20.0875 211.576 18.0755C211.576 16.0635 211.119 14.0778 210.24 12.2681C209.361 10.4583 208.082 8.87182 206.5 7.62817C208.461 6.08732 210.815 5.12909 213.294 4.863C215.773 4.59691 218.277 5.03371 220.52 6.12347C222.762 7.21322 224.653 8.91196 225.976 11.0255C227.299 13.1391 228 15.5822 228 18.0755V18.0755Z" fill="#F79E1B"/>
<path d="M226.732 26.3092V25.8815H226.905V25.7943H226.466V25.8815H226.638V26.3092H226.732ZM227.585 26.3092V25.7935H227.451L227.296 26.1482L227.141 25.7935H227.006V26.3092H227.101V25.9202L227.246 26.2556H227.345L227.49 25.9193V26.3092H227.585Z" fill="#F79E1B"/>
<path d="M145.291 14.7746L142.418 28.2053H138.943L141.816 14.7746H145.291ZM159.909 23.447L161.738 18.4035L162.79 23.447H159.909ZM163.787 28.2053H167L164.193 14.7746H161.229C160.561 14.7746 159.998 15.1618 159.749 15.7591L154.536 28.2053H158.185L158.909 26.1995H163.366L163.787 28.2053ZM154.717 23.8206C154.732 20.276 149.817 20.0797 149.849 18.4959C149.86 18.0147 150.319 17.5021 151.323 17.371C151.82 17.3069 153.193 17.255 154.749 17.9721L155.358 15.1229C154.522 14.8205 153.447 14.5293 152.108 14.5293C148.673 14.5293 146.257 16.3539 146.238 18.9686C146.215 20.9023 147.964 21.9804 149.278 22.6244C150.633 23.2826 151.087 23.7046 151.08 24.2928C151.071 25.1939 150 25.5929 149.002 25.608C147.255 25.6352 146.241 25.1356 145.434 24.7592L144.803 27.7036C145.616 28.0757 147.115 28.3995 148.666 28.4162C152.318 28.4162 154.706 26.613 154.717 23.8206ZM140.326 14.7746L134.696 28.2053H131.024L128.253 17.4866C128.085 16.8275 127.939 16.5852 127.428 16.3067C126.592 15.853 125.213 15.4286 124 15.1646L124.082 14.7746H129.994C130.748 14.7746 131.425 15.2757 131.598 16.1433L133.061 23.9158L136.676 14.7746H140.326Z" fill="white"/>
<defs>
<linearGradient id="paint0_linear_2034_528" x1="42.9999" y1="19.6714" x2="30.4578" y2="19.6714" gradientUnits="userSpaceOnUse">
<stop stop-color="#1F5CD7"/>
<stop offset="1" stop-color="#02AEFF"/>
</linearGradient>
</defs>
</svg>
